<svg width="230" height="144" viewBox="0 0 230 144" fill="none" xmlns="http://www.w3.org/2000/svg">
<g clip-path="url(#clip0_1_44)">
<path opacity="0.1" d="M230 99.5451C230.016 93.7307 228.637 87.9977 225.977 82.8297C223.318 77.6617 219.457 73.2102 214.72 69.8508C214.851 68.5948 214.918 67.3329 214.921 66.07C214.921 46.1005 198.99 29.9119 179.336 29.9119C173.284 29.9054 167.333 31.4696 162.064 34.452C148.153 25.2831 129.992 19.7338 110.125 19.7338C77.7979 19.7338 49.9908 34.4279 37.6544 55.4971C36.9689 55.4568 36.2793 55.4347 35.5836 55.4347C15.9331 55.4347 -0.00201915 71.6233 -0.00201915 91.5928C-0.0159746 98.648 2.01888 105.555 5.85454 111.472V111.472C5.85454 129.439 22.7808 144.002 43.6517 144.002H195.066C211.459 144.002 224.749 132.567 224.749 118.459C228.197 112.756 230.014 106.213 230 99.5451Z" fill="white"/>
<path d="M166.585 33.0602C165.069 33.7007 163.549 34.3433 162.138 35.1893C161.497 35.572 160.881 35.995 160.222 36.3434C159.512 36.7221 158.758 37.0081 158.01 37.3143C155.946 38.1589 153.942 39.1428 152.011 40.2592C152.178 38.0938 151.862 35.7412 150.57 34.0532C150.38 33.8031 150.168 33.5699 149.938 33.3563C149.024 32.5063 147.727 32.2867 146.828 31.5434C147.375 30.5806 148.589 29.7064 149.416 28.9712C150.308 28.1803 151.234 27.4303 152.194 26.7213C154.112 25.3021 156.154 24.0596 158.296 23.009C159.655 22.3423 161.074 21.746 162.574 21.5426C162.763 21.5 162.961 21.5176 163.139 21.593C163.372 21.7219 163.457 22.0119 163.513 22.2718C163.793 23.571 163.935 24.9044 164.169 26.2137C164.283 26.8865 164.438 27.5518 164.633 28.2058C164.884 28.9792 165.173 29.7396 165.499 30.4839C165.863 31.342 166.225 32.2008 166.585 33.0602Z" fill="#FBBEBE"/>
<path d="M123.559 69.7763C123.558 72.4501 122.715 75.0555 121.149 77.2206C119.582 79.3857 117.374 80.9998 114.838 81.8326C112.301 82.6654 109.568 82.6743 107.026 81.8581C104.485 81.0419 102.266 79.4423 100.685 77.2875C99.0864 75.1109 98.2247 72.4788 98.2265 69.7763C98.2265 66.4107 99.5609 63.183 101.936 60.8031C104.312 58.4233 107.533 57.0864 110.893 57.0864C114.252 57.0864 117.473 58.4233 119.849 60.8031C122.224 63.183 123.559 66.4107 123.559 69.7763Z" fill="#BE6F72"/>
<path d="M106.355 80.9595C107.032 82.1298 107.716 83.3101 108.15 84.5852C108.585 85.8602 108.753 87.2722 108.396 88.5754C112.71 86.2993 117.845 86.4826 122.594 85.3304C122.721 85.3158 122.838 85.254 122.921 85.1572C122.95 85.0912 122.965 85.0198 122.965 84.9477C122.965 84.8756 122.95 84.8043 122.921 84.7382C121.927 81.0525 121.545 77.2281 121.789 73.418L119.31 74.8864C118.225 75.558 117.101 76.1634 115.943 76.6993C114.304 77.4184 112.565 77.8535 110.854 78.357C109.499 78.7599 106.809 79.2816 105.957 80.468C106.111 80.6135 106.244 80.7787 106.355 80.9595V80.9595Z" fill="#BE6F72"/>
<path d="M99.3765 63.8946C98.5522 64.2269 97.5831 64.6097 96.8252 64.1444C96.2683 63.7999 96.0391 63.0849 96.0732 62.4302C96.1074 61.7756 96.3567 61.1552 96.5538 60.5308C96.9558 59.2477 97.173 57.9122 97.6213 56.6352C98.0697 55.3581 98.8015 54.1274 99.9635 53.4526C102.103 52.2118 104.871 53.2371 107.246 52.5502C108.251 52.2622 109.125 51.6821 110.06 51.2269C110.995 50.7716 112.047 50.4212 113.056 50.6649C114.238 50.9408 115.111 51.9379 116.212 52.4455C117.419 53.0014 118.862 52.9632 119.96 53.7064C120.738 54.2342 121.228 55.0862 121.665 55.9221C123.061 58.6086 124.163 61.4383 124.952 64.3619C125.268 65.4088 125.448 66.4919 125.489 67.5847C125.499 68.9826 125.121 70.3523 124.747 71.7019L124.144 73.837C123.921 74.6427 123.691 75.4484 123.269 76.1776C122.847 76.9068 122.196 77.5211 121.389 77.7326C120.384 77.9924 119.214 77.4889 118.776 76.5462C118.506 75.9621 118.518 75.2933 118.504 74.6508C118.482 73.3924 118.347 72.1386 118.102 70.9042C117.978 70.2859 117.811 69.6433 117.39 69.176C116.848 68.5717 115.983 68.3703 115.179 68.3562C114.238 68.3441 113.207 68.5999 112.658 69.3633C112.217 69.9797 112.141 70.8458 111.556 71.3272C111.296 71.5271 110.987 71.6531 110.661 71.6918C109.998 71.7747 109.325 71.6322 108.752 71.2871C108.179 70.942 107.738 70.4143 107.499 69.7883C107.314 69.2566 107.223 68.5959 106.721 68.3461C106.459 68.2152 106.148 68.2394 105.868 68.1548C105.012 67.8949 104.787 66.8072 104.708 65.9149C104.618 64.8695 104.966 62.8049 103.669 62.7344C102.272 62.6578 100.661 63.4655 99.3765 63.8946Z" fill="#3F3D56"/>
<path d="M102.414 77.65C101.968 77.8655 101.479 78.1173 101.305 78.5806C101.236 78.7619 101.224 78.9613 101.162 79.1466C100.878 79.9664 99.7726 80.1276 99.2016 80.7802C98.944 81.1101 98.7708 81.498 98.6969 81.9102C98.3155 83.5358 98.439 85.2394 99.0508 86.7928C99.2281 87.285 99.5015 87.737 99.855 88.1222C100.876 89.1656 102.638 89.1455 103.91 88.4344C105.183 87.7234 106.061 86.4765 106.807 85.2116C107.203 84.5749 107.533 83.9001 107.794 83.1973C108.024 82.4826 108.187 81.7484 108.283 81.0038C108.729 78.1012 109.312 74.8824 109.111 71.9396C108.508 71.9013 107.356 71.859 106.823 72.2377C106.156 72.7131 106.341 73.6718 106.1 74.3668C105.529 76.0386 103.872 76.9209 102.414 77.65Z" fill="#3F3D56"/>
<path d="M102.937 78.0347C102.183 78.0811 100.832 77.2452 100.076 77.2875C99.5617 76.3878 99.107 75.4552 98.715 74.4957C99.1171 73.9176 99.7645 73.7766 100.744 74.4957C101.53 75.0496 102.615 76.9652 102.937 78.0347Z" fill="#3F3D56"/>
<path d="M114.302 46.2093C113.484 46.6424 112.977 46.6625 112.573 46.5759C112.169 46.4893 111.367 46.8922 111.367 46.8922C104.28 49.3214 104.001 50.4675 104.001 50.4675L112.205 47.5649C113.784 46.872 113.814 47.1157 113.814 47.1157C115.02 48.2518 116.556 47.4823 116.556 47.4823C116.556 47.4823 118.681 46.4752 118.056 45.5063C117.431 44.5375 115.123 45.7843 114.302 46.2093ZM117.72 46.028C117.72 46.028 117.117 47.6394 114.948 47.3776C114.948 47.3776 113.882 47.2205 114.333 46.4248C114.333 46.4248 116.544 45.4943 117.129 45.5607C117.714 45.6272 117.714 46.0361 117.714 46.0361L117.72 46.028Z" fill="#E8E8F0"/>
<path opacity="0.1" d="M114.302 46.2093C113.484 46.6424 112.977 46.6625 112.573 46.5759C112.169 46.4893 111.367 46.8922 111.367 46.8922C104.28 49.3214 104.001 50.4675 104.001 50.4675L112.205 47.5649C113.784 46.872 113.814 47.1157 113.814 47.1157C115.02 48.2518 116.556 47.4823 116.556 47.4823C116.556 47.4823 118.681 46.4752 118.056 45.5063C117.431 44.5375 115.123 45.7843 114.302 46.2093ZM117.72 46.028C117.72 46.028 117.117 47.6394 114.948 47.3776C114.948 47.3776 113.882 47.2205 114.333 46.4248C114.333 46.4248 116.544 45.4943 117.129 45.5607C117.714 45.6272 117.714 46.0361 117.714 46.0361L117.72 46.028Z" fill="black"/>
<path d="M114.753 41.7175C113.526 41.7578 113.271 42.6763 113.271 42.6763C113.025 42.9699 112.882 43.3353 112.861 43.7177C112.84 44.1001 112.944 44.4789 113.156 44.7973L110.979 46.9667C110.566 47.1262 110.212 47.4071 109.962 47.7724C109.962 47.7724 105.181 52.0024 105.251 52.3871C105.251 52.3871 106.031 52.7899 110.979 48.2719L112.278 47.1198C112.278 47.1198 112.565 44.9665 114.594 44.5576C114.594 44.5576 114.795 44.6462 114.901 44.1668C115.015 43.937 115.167 43.7279 115.35 43.5485C115.619 43.2987 115.979 41.6752 114.753 41.7175ZM115.096 43.1738C115.096 43.1738 114.439 44.8739 113.502 44.3824C112.565 43.8909 113.476 42.7569 113.476 42.7569C115.101 41.1736 115.096 43.1738 115.096 43.1738Z" fill="#E8E8F0"/>
<path opacity="0.1" d="M111.021 47.8127C111.164 47.8127 111.281 47.6963 111.281 47.5528C111.281 47.4093 111.164 47.293 111.021 47.293C110.878 47.293 110.762 47.4093 110.762 47.5528C110.762 47.6963 110.878 47.8127 111.021 47.8127Z" fill="black"/>
<path d="M133.71 39.3366C132.953 38.9372 132.167 38.5952 131.359 38.3134C130.286 38.0083 129.182 37.8192 128.068 37.7494C124.548 37.4137 121.018 37.219 117.477 37.1653C116.852 37.1653 116.212 37.1512 115.619 37.3667C115.089 37.5704 114.61 37.8856 114.212 38.2912C113.523 38.951 112.976 39.7447 112.603 40.6237C112.484 40.844 112.448 41.1002 112.503 41.3449C112.583 41.5785 112.905 41.7336 113.088 41.5684C112.62 41.9463 112.276 42.4565 112.101 43.0326C111.926 43.6088 111.928 44.2243 112.107 44.7993C111.828 44.9456 111.591 45.1614 111.42 45.426C111.248 45.6907 111.148 45.9951 111.128 46.31C112.589 46.5812 114.094 46.5081 115.523 46.0965C115.096 45.9877 114.656 46.3886 114.63 46.8277C114.633 47.0483 114.697 47.2638 114.814 47.4504C114.931 47.6371 115.098 47.7875 115.296 47.8852C115.694 48.0742 116.134 48.1614 116.574 48.139C118.277 48.139 119.934 47.5609 121.633 47.4864C122.931 47.4279 124.27 47.6636 125.511 47.2849C126.95 46.8378 128.235 45.5708 129.719 45.8347C130.903 46.0462 131.675 47.148 132.447 48.0705C133.681 49.5429 135.207 50.7354 136.721 51.9177C137.887 52.8282 139.106 53.7628 140.551 54.071C140.984 54.1891 141.443 54.1673 141.862 54.0086C142.213 53.8206 142.507 53.5425 142.715 53.2028C144.273 50.9872 144.275 48.1974 144.184 45.601C144.138 44.2736 143.849 44.0943 142.622 43.5444C141.199 42.9039 139.781 42.2479 138.368 41.5765C136.808 40.846 135.255 40.0994 133.71 39.3366Z" fill="#FBBEBE"/>
<path d="M150.005 44.3078C149.765 44.4513 149.512 44.5708 149.249 44.6644C148.808 44.7691 148.36 44.5818 147.932 44.4368C146.122 43.8325 144.112 43.9755 142.363 43.2282C142.936 46.5267 142.186 49.9187 140.274 52.665C139.912 53.1807 139.435 53.7084 138.808 53.7487C139.088 54.6088 139.948 55.1285 140.764 55.5152C142.068 56.1333 143.432 56.6153 144.834 56.9534C145.236 57.0481 145.726 57.0944 145.96 56.752C146.1 56.5506 146.161 56.2061 146.408 56.2182C146.786 56.6211 146.661 57.4469 147.184 57.6282C147.347 57.6698 147.518 57.6698 147.681 57.6282L148.847 57.4268C149.196 57.3964 149.533 57.2802 149.828 57.0884C150.012 56.928 150.164 56.7338 150.276 56.5163C151.583 54.2865 152.085 51.7063 152.287 49.1582C152.385 47.8932 152.508 46.5517 152.421 45.2828C152.341 44.195 150.95 43.8667 150.005 44.3078Z" fill="#E8E8F0"/>
<path opacity="0.1" d="M150.005 44.3078C149.765 44.4513 149.512 44.5708 149.249 44.6644C148.808 44.7691 148.36 44.5818 147.932 44.4368C146.122 43.8325 144.112 43.9755 142.363 43.2282C142.936 46.5267 142.186 49.9187 140.274 52.665C139.912 53.1807 139.435 53.7084 138.808 53.7487C139.088 54.6088 139.948 55.1285 140.764 55.5152C142.068 56.1333 143.432 56.6153 144.834 56.9534C145.236 57.0481 145.726 57.0944 145.96 56.752C146.1 56.5506 146.161 56.2061 146.408 56.2182C146.786 56.6211 146.661 57.4469 147.184 57.6282C147.347 57.6698 147.518 57.6698 147.681 57.6282L148.847 57.4268C149.196 57.3964 149.533 57.2802 149.828 57.0884C150.012 56.928 150.164 56.7338 150.276 56.5163C151.583 54.2865 152.085 51.7063 152.287 49.1582C152.385 47.8932 152.508 46.5517 152.421 45.2828C152.341 44.195 150.95 43.8667 150.005 44.3078Z" fill="black"/>
<path d="M82.607 109.645C82.034 108.907 81.4449 108.126 80.5965 107.737C80.1077 107.54 79.5931 107.413 79.0685 107.362C76.2398 106.96 73.405 106.541 70.5501 106.462C69.6172 106.436 68.616 106.462 67.856 107.008C66.9855 107.63 66.6497 108.776 66.6015 109.846C66.5495 111.12 66.8019 112.387 67.3377 113.543C67.8734 114.7 68.677 115.711 69.6816 116.493C71.3905 117.798 73.5497 118.344 75.6567 118.775C76.7645 119.003 77.8783 119.206 78.9962 119.38C80.114 119.553 81.2519 119.69 82.3316 120.036C84.6396 120.777 86.6762 122.453 89.0969 122.592C89.2106 122.61 89.327 122.59 89.4286 122.536C89.5348 122.45 89.6063 122.328 89.6296 122.194C90.1624 120.31 92.0101 115.8 89.6296 114.483C88.3851 113.796 87.0039 113.766 85.7856 112.894C84.5672 112.021 83.5318 110.835 82.607 109.645Z" fill="#BE6F72"/>
<path d="M62.283 122.147C60.7168 120.782 58.5555 120.058 57.4176 118.32C56.917 117.555 56.6636 116.656 56.4123 115.774L55.6725 113.111C55.6155 112.948 55.5896 112.775 55.5961 112.602C55.6524 112.046 56.3058 111.782 56.8566 111.695C59.6713 111.256 62.6026 112.392 64.7096 114.314C66.8166 116.235 68.1697 118.886 68.9638 121.634C69.0197 121.773 69.0282 121.928 68.9879 122.073C68.9192 122.202 68.8105 122.305 68.6783 122.367C67.661 122.971 66.2939 123.851 65.1057 124.037C63.9175 124.222 63.1294 122.876 62.283 122.147Z" fill="#BE6F72"/>
<path d="M130.997 110.666L139.24 113.971C140.023 114.285 140.666 114.869 141.054 115.618C141.442 116.367 141.548 117.231 141.354 118.052L135.219 143.901H119.883L122.553 114.493C122.553 114.493 128.384 109.659 130.997 110.666Z" fill="#3F3D56"/>
<path d="M138.959 107.564C138.806 107.898 138.581 108.229 138.615 108.593C138.635 108.811 138.748 109.016 138.732 109.232C138.7 109.655 138.211 109.89 137.789 109.894C137.367 109.898 136.942 109.761 136.526 109.834C135.843 109.951 135.38 110.581 134.789 110.946C133.965 111.453 132.936 111.423 131.975 111.51C129.964 111.691 128.062 112.446 126.243 113.307C125.006 113.891 123.693 114.64 123.227 115.925C122.557 117.738 123.856 119.648 124.144 121.565C124.221 122.211 124.24 122.862 124.2 123.511C123.989 130.283 123.625 137.133 123.239 143.897L49.5425 143.984L53.1714 137.613C56.7099 131.399 60.3428 125.068 65.6807 120.316C66.4725 119.6 67.362 119.001 68.3225 118.536L72.6028 122.363C72.9455 122.704 73.3431 122.985 73.7789 123.195C74.5831 123.523 75.4838 123.336 76.3463 123.364C78.005 123.418 79.5209 124.266 80.9604 125.094C82.0162 125.668 83.0319 126.314 84.0003 127.026C84.5672 127.461 85.3855 127.733 85.9766 128.134L85.8378 120.902C85.8238 120.25 85.8137 119.581 86.0087 118.959C86.3867 117.75 87.4663 116.896 87.9851 115.746C88.2203 115.228 88.3349 114.664 88.5319 114.134C88.8105 113.453 89.1567 112.802 89.5653 112.191L92.2332 107.896C92.8927 106.837 93.5501 105.777 94.2658 104.756C97.3961 100.282 101.61 96.699 105.71 93.1035C105.614 92.0788 105.85 91.0506 106.383 90.1707C106.593 89.8778 106.767 89.5606 106.902 89.226C106.989 88.8294 107.014 88.4217 106.976 88.0175C106.976 87.9147 106.976 87.816 106.976 87.7073C107.021 87.0486 107.295 86.4267 107.752 85.9508C108.223 85.4614 108.852 85.1632 109.471 84.8853C112.676 83.4494 116.008 82.3178 119.423 81.5053C119.968 81.3764 120.545 81.2556 121.082 81.4187C121.245 81.9444 121.799 82.1298 122.354 82.2627L122.71 82.3453C123.653 82.5492 124.532 82.9791 125.272 83.5982C126.05 84.279 126.584 85.1894 127.105 86.0858C131.02 92.8195 132.823 101.654 138.879 106.547C139.172 106.778 139.112 107.242 138.959 107.564Z" fill="white"/>
<path opacity="0.1" d="M163.654 24.8581C161.535 29.5251 157.359 34.1237 151.907 34.1237C151.461 34.124 151.017 34.1018 150.574 34.0572C150.384 33.8071 150.172 33.5739 149.942 33.3603C149.028 32.5103 147.731 32.2907 146.832 31.5475C147.379 30.5846 148.593 29.7105 149.42 28.9752C150.312 28.1843 151.238 27.4343 152.198 26.7253C154.116 25.3062 156.158 24.0637 158.3 23.013C159.659 22.3463 161.078 21.7501 162.578 21.5466C162.767 21.504 162.965 21.5216 163.143 21.597C163.376 21.7259 163.461 22.0159 163.517 22.2758C163.797 23.5649 163.421 23.5488 163.654 24.8581Z" fill="black"/>
<path d="M151.907 33.7188C159.346 33.7188 165.377 27.6767 165.377 20.2232C165.377 12.7698 159.346 6.72765 151.907 6.72765C144.467 6.72765 138.436 12.7698 138.436 20.2232C138.436 27.6767 144.467 33.7188 151.907 33.7188Z" fill="#FBBEBE"/>
<path d="M179.959 65.1072C179.74 66.7388 179.357 68.3442 178.817 69.8991C178.616 70.4651 178.369 71.017 178.113 71.5609C176.615 74.7414 175.793 78.1798 175.401 81.6765C175.371 81.9518 175.321 82.2245 175.25 82.4923C174.955 83.6203 174.332 84.6274 173.855 85.6889C173.369 86.8355 172.966 88.0156 172.649 89.22C172.534 89.5222 172.495 89.848 172.536 90.1687C172.611 90.5091 172.856 90.773 173.029 91.0811C173.921 92.6221 172.89 94.5054 172.542 96.2498C172.424 96.854 172.371 97.5107 171.979 97.982C171.646 98.3849 171.127 98.5702 170.634 98.7394C163.613 101.131 156.428 103.005 149.134 104.347C148.046 104.549 146.923 104.736 145.843 104.534C144.763 104.333 143.688 103.664 143.318 102.621C143.105 102.017 143.141 101.36 143.159 100.719C143.199 99.3739 143.159 98.0203 143.087 96.6647C142.853 92.2031 142.325 87.7254 143.489 83.4511C143.836 82.1902 144.327 80.9736 144.721 79.7267C145.491 77.2955 145.69 74.7817 145.883 72.2598C146.042 70.1811 146.197 68.0943 146.661 66.0438C147.007 64.515 146.778 62.9257 146.758 61.3586C146.718 57.7724 147.77 54.2593 149.773 51.2873C150.121 50.7736 150.503 50.266 150.686 49.6759C150.944 48.8299 150.767 47.9214 150.65 47.0432C150.356 44.8041 150.475 42.53 151 40.3337C151.165 39.5119 151.479 38.7274 151.927 38.0193C152.427 37.2881 153.145 36.7362 153.863 36.2165C158.03 33.2068 162.627 30.8469 167.5 29.2169C167.948 30.353 168.378 31.6804 168.722 32.8426C168.769 32.9997 168.801 33.1992 168.672 33.2999C168.543 33.4006 168.411 33.3462 168.27 33.3502C168.125 33.366 167.988 33.4254 167.877 33.5207C167.766 33.616 167.686 33.7426 167.649 33.884C167.578 34.1693 167.605 34.4699 167.725 34.7381C167.999 35.443 168.588 35.9688 169.155 36.4663L172.005 38.9579C172.347 39.2779 172.719 39.5626 173.117 39.808C173.475 40.0094 173.865 40.1524 174.233 40.3377C175.709 41.085 176.728 42.5413 177.297 44.0963C177.866 45.6514 177.609 47.5206 178.351 48.9971C180.815 53.8917 180.795 59.6827 179.959 65.1072Z" fill="#E8E8F0"/>
<path d="M178.085 116.322C178.951 119.82 178.93 123.48 178.023 126.967C177.86 127.59 177.669 128.234 177.798 128.865C177.872 129.223 178.047 129.56 178.087 129.924C178.105 130.257 178.069 130.59 177.981 130.911C177.088 135.141 177.408 139.536 177.767 143.853C177.615 143.853 177.566 143.923 177.406 143.923H173.531C173.463 142.789 172.056 141.939 171.368 141.035C170.703 140.148 170.243 139.125 170.021 138.038C169.8 136.952 169.822 135.829 170.087 134.752C170.691 132.335 172.468 130.404 173.379 128.093C174.384 125.551 174.297 122.673 175.365 120.159C175.978 118.707 177.124 117.573 178.085 116.322Z" fill="#3F3D56"/>
<path opacity="0.1" d="M178.085 116.322C178.951 119.82 178.93 123.48 178.023 126.967C177.86 127.59 177.669 128.234 177.798 128.865C177.872 129.223 178.047 129.56 178.087 129.924C178.105 130.257 178.069 130.59 177.981 130.911C177.088 135.141 177.408 139.536 177.767 143.853C177.615 143.853 177.566 143.923 177.406 143.923H173.531C173.463 142.789 172.056 141.939 171.368 141.035C170.703 140.148 170.243 139.125 170.021 138.038C169.8 136.952 169.822 135.829 170.087 134.752C170.691 132.335 172.468 130.404 173.379 128.093C174.384 125.551 174.297 122.673 175.365 120.159C175.978 118.707 177.124 117.573 178.085 116.322Z" fill="black"/>
<path d="M169.955 96.9346C166.662 96.4069 163.471 98.0687 160.29 99.0778C155.431 100.619 150.081 100.713 145.592 103.133C145.191 103.326 144.827 103.589 144.518 103.91C144.154 104.362 143.924 104.908 143.857 105.485C143.656 106.761 143.902 108.067 144.554 109.181C144.834 109.657 145.185 110.094 145.403 110.603C145.917 111.812 145.574 113.206 145.485 114.527C145.284 117.478 146.426 120.35 146.655 123.299C146.792 125.038 146.613 126.814 147.021 128.51C147.276 129.574 147.757 130.577 147.956 131.653C148.155 132.728 148.069 133.78 148.135 134.843C148.322 137.891 149.707 140.852 149.369 143.887L175.506 143.974C174.537 140.596 173.73 137.103 174.609 133.701C174.914 132.625 175.293 131.572 175.743 130.549C177.205 127.01 178.706 123.461 179.513 119.718C180.319 115.975 180.391 111.979 179.026 108.402C177.506 104.414 174.275 101.096 173.572 96.8863C172.365 96.7251 171.163 97.128 169.955 96.9346Z" fill="#3F3D56"/>
<path d="M142.526 13.6406C142.272 13.1089 141.555 12.7584 141.072 13.0948C140.59 13.4311 140.652 14.1825 140.533 14.7867C140.304 15.9752 139.126 16.7849 137.92 16.9742C137.355 17.0649 136.725 17.0286 136.287 16.662C136.005 16.3911 135.797 16.0519 135.684 15.677C134.478 12.4542 135.211 8.69156 137.186 5.87965C137.605 5.24955 138.124 4.69288 138.724 4.23198C140.386 3.02341 142.61 3.02341 144.667 3.08787C145.084 3.13324 145.507 3.08437 145.903 2.94486C146.205 2.78559 146.482 2.58191 146.724 2.34058C148.672 0.624422 151.364 -0.0966857 153.961 0.0181276C156.559 0.132941 159.058 1.02526 161.366 2.21166C162.47 2.77767 163.551 3.42023 164.416 4.31456C166.493 6.45573 166.999 9.6282 167.407 12.5851C167.846 15.7757 168.282 19.055 167.544 22.1912C167.126 23.9678 166.338 25.7041 166.43 27.527C164.76 28.0048 163.063 28.3808 161.348 28.653C160.544 28.7799 159.615 28.8544 159.026 28.2843C158.777 28.0168 158.595 27.6937 158.495 27.3417C157.858 25.4543 158.071 23.299 157.108 21.5547C156.705 20.8435 156.13 20.2456 155.435 19.8168C154.74 19.3879 153.948 19.1418 153.133 19.1013C152.502 19.0791 151.784 19.2342 151.46 19.7761C151.336 20.0419 151.24 20.32 151.175 20.606C150.728 21.9535 148.901 22.6202 147.697 21.8689C147.093 21.4902 146.681 20.8618 146.136 20.3904C145.445 19.7962 144.558 19.4901 143.782 19.0107C141.197 17.4053 143.527 15.7455 142.526 13.6406Z" fill="#3F3D56"/>
<path d="M122.362 82.2647C121.263 82.6172 120.261 83.2557 119.192 83.7049C117.308 84.4925 115.237 84.6758 113.261 85.1794C111.362 85.6896 109.532 86.4281 107.81 87.3789C107.684 87.4474 107.286 87.7818 106.968 88.0114C106.968 87.9087 106.968 87.81 106.968 87.7012C107.013 87.0425 107.287 86.4207 107.744 85.9448C108.215 85.4553 108.844 85.1572 109.463 84.8792C112.67 83.445 116.005 82.3154 119.423 81.5053C119.968 81.3764 120.545 81.2556 121.082 81.4187C121.253 81.9444 121.808 82.1298 122.362 82.2647Z" fill="#3F3D56"/>
<path opacity="0.1" d="M93.8597 133.921C96.023 136.338 97.9631 138.976 100.48 141.015C97.5751 137.149 93.4073 134.569 89.6397 131.655C88.8757 131.062 87.3477 130.222 86.8853 129.366C86.1555 128.025 87.7679 128.978 88.4374 129.342C90.5283 130.48 92.2815 132.16 93.8597 133.921Z" fill="black"/>
<path opacity="0.1" d="M171.696 63.3648C171.593 64.235 171.27 65.0608 170.942 65.8706C170.138 67.8848 169.275 69.879 168.061 71.6656C167.224 72.8963 166.229 74.0082 165.357 75.2107C164.461 76.4871 163.639 77.814 162.896 79.1849C161.525 81.6181 160.188 84.0715 158.887 86.545C158.266 87.7294 157.649 88.9239 156.846 89.9934C156.283 90.7153 155.679 91.404 155.037 92.0561C153.63 93.5426 152.184 94.9163 150.925 96.5277C150.302 97.3334 149.263 97.6436 148.292 97.9176C147.967 98.0258 147.628 98.0868 147.286 98.0989C146.942 98.0748 146.603 97.9995 146.281 97.8753C145.197 97.5437 144.135 97.1399 143.105 96.6667C142.871 92.2051 142.343 87.7274 143.507 83.4531C143.855 82.1922 144.345 80.9756 144.739 79.7287C145.509 77.2975 145.708 74.7837 145.901 72.2619C146.14 71.7563 146.396 71.2547 146.643 70.7673C148.32 67.4478 149.733 63.7919 149.297 60.0917C149.186 59.4246 149.109 58.7523 149.066 58.0774C149.07 57.2499 149.209 56.4286 149.478 55.6462C150.08 53.798 151.074 52.1027 152.393 50.6769C153.712 49.2511 155.324 48.1289 157.118 47.3877C157.684 47.1225 158.302 46.9849 158.927 46.9848C159.731 47.0271 160.501 47.4461 161.285 47.293C163.941 48.4633 166.091 50.4614 167.697 52.8826C169.303 55.3037 169.392 58.5386 171.139 60.8591C171.656 61.5641 171.796 62.4967 171.696 63.3648Z" fill="black"/>
<path d="M113.565 52.4334L113.48 52.2501L110.195 53.7689L109.646 54.0227L109.099 54.2744L113.731 64.3357L114.278 64.0819L114.827 63.8281L118.112 62.3094L118.028 62.1281L114.743 63.6468L114.658 63.4635L117.943 61.9448L117.859 61.7615L114.574 63.2802L114.489 63.0969L117.774 61.5782L117.692 61.3949L114.405 62.9136L114.32 62.7323L117.608 61.2136L117.523 61.0303L114.236 62.5491L114.152 62.3658L117.439 60.847L117.354 60.6637L114.069 62.1825L113.985 61.9992L117.27 60.4804L117.185 60.2991L113.9 61.8179L113.816 61.6346L117.101 60.1158L117.017 59.9325L113.731 61.4513L113.647 61.268L116.934 59.7492L116.85 59.5659L113.562 61.0847L113.478 60.9034L116.765 59.3826L116.681 59.2013L113.394 60.7201L113.311 60.5368L116.596 59.018L116.512 58.8347L113.227 60.3535L113.142 60.1702L116.427 58.6514L116.343 58.4681L113.058 59.9869L112.973 59.8056L116.259 58.2869L116.176 58.1036L112.889 59.6223L112.805 59.439L116.092 57.9203L116.007 57.737L112.72 59.2557L112.638 59.0724L115.923 57.5557L115.838 57.3724L112.553 58.8911L112.469 58.7078L115.754 57.1891L115.669 57.0058L112.384 58.5245L112.3 58.3412L115.585 56.8225L115.503 56.6392L112.215 58.16L112.131 57.9767L115.418 56.4579L115.334 56.2746L112.047 57.7934L111.962 57.6101L115.249 56.0913L115.165 55.908L111.88 57.4268L111.795 57.2435L115.08 55.7247L114.996 55.5434L111.711 57.0622L111.626 56.8789L114.912 55.3601L114.827 55.1768L111.542 56.6956L111.458 56.5123L114.745 54.9935L114.66 54.8122L111.373 56.329L111.289 56.1477L114.576 54.6289L114.491 54.4456L111.204 55.9644L111.122 55.7811L114.407 54.2624L114.322 54.0791L111.037 55.5978L110.953 55.4145L114.238 53.8958L114.154 53.7145L110.868 55.2332L110.784 55.0499L114.069 53.5312L113.987 53.3479L110.7 54.8666L110.615 54.6833L113.902 53.1646L113.818 52.9813L110.531 54.5L110.446 54.3188L113.733 52.8L113.649 52.6167L110.362 54.1355L110.279 53.9522L113.565 52.4334Z" fill="black"/>
<path opacity="0.1" d="M123.878 74.5622C123.454 75.2812 122.805 75.9057 121.999 76.1172C120.993 76.377 119.823 75.8734 119.385 74.9308C119.115 74.3466 119.128 73.6779 119.113 73.0353C119.091 71.777 118.957 70.5231 118.711 69.2888C118.587 68.6704 118.42 68.0279 118 67.5606C117.457 66.9563 116.592 66.7548 115.788 66.7407C114.847 66.7287 113.816 66.9845 113.267 67.7479C112.827 68.3642 112.75 69.2304 112.165 69.7118C111.905 69.9117 111.596 70.0376 111.271 70.0764C110.607 70.1592 109.935 70.0167 109.361 69.6717C108.788 69.3266 108.347 68.7989 108.108 68.1729C107.923 67.6411 107.833 66.9804 107.33 66.7307C107.069 66.5998 106.757 66.6239 106.478 66.5393C105.621 66.2795 105.396 65.1918 105.317 64.2995C105.227 63.2541 105.575 61.1894 104.278 61.1189C102.891 61.0424 101.28 61.8501 99.9957 62.2791C99.1714 62.6115 98.2024 62.9942 97.4444 62.5289C96.8875 62.1845 96.6583 61.4694 96.6925 60.8148C96.7267 60.1601 96.976 59.5397 97.173 58.9153C97.5108 57.8598 97.7138 56.7641 98.0234 55.6925C97.8778 55.9956 97.7483 56.3063 97.6354 56.6231C97.1891 57.8941 96.98 59.2416 96.5698 60.5187C96.3688 61.1431 96.1235 61.7635 96.0893 62.4181C96.0552 63.0728 96.2904 63.7878 96.8413 64.1323C97.5992 64.5976 98.5683 64.2149 99.3926 63.8825C100.677 63.4535 102.288 62.6457 103.675 62.7223C104.972 62.7928 104.624 64.8574 104.714 65.9028C104.793 66.7951 105.018 67.8828 105.874 68.1427C106.154 68.2273 106.465 68.2031 106.727 68.334C107.229 68.5838 107.33 69.2445 107.505 69.7763C107.744 70.4022 108.185 70.9299 108.758 71.275C109.331 71.6201 110.004 71.7626 110.667 71.6797C110.993 71.641 111.302 71.515 111.562 71.3152C112.147 70.8337 112.224 69.9676 112.664 69.3512C113.213 68.5838 114.244 68.328 115.185 68.3441C115.989 68.3562 116.864 68.5576 117.397 69.1639C117.817 69.6312 117.984 70.2738 118.108 70.8922C118.354 72.1265 118.488 73.3803 118.51 74.6387C118.524 75.2812 118.51 75.95 118.782 76.5341C119.218 77.4768 120.39 77.9804 121.395 77.7205C122.2 77.509 122.851 76.8846 123.275 76.1655C123.598 75.5784 123.847 74.9531 124.015 74.3043C123.971 74.397 123.927 74.4796 123.878 74.5622Z" fill="black"/>
<path d="M134.22 73.2247C132.612 71.6777 131.158 69.9656 129.715 68.2575C128.332 66.6239 126.944 64.9823 125.831 63.1553C125.141 62.0253 124.526 60.7926 123.466 60.001C122.662 59.3967 121.679 59.1147 120.79 58.6535C120.151 58.3211 119.562 57.9001 118.931 57.5557C117.553 56.8099 116.004 56.4436 114.439 56.4942C113.79 56.5163 113.052 56.6674 112.718 57.2274C112.604 57.4187 112.549 57.6423 112.433 57.8316C112.073 58.4359 111.206 58.6071 110.911 59.2416C110.412 60.3092 111.916 61.2901 112.01 62.4645C112.055 63.0526 111.731 63.6005 111.636 64.1826C111.476 65.1898 111.996 66.1506 112.499 67.0288C113.575 68.9101 114.883 70.9707 116.996 71.4441C117.744 71.6112 118.534 71.5569 119.264 71.7945C119.852 72.0178 120.397 72.3431 120.873 72.7553C122.858 74.323 124.608 76.1689 126.068 78.2362C126.747 79.197 127.363 80.2001 128.048 81.1548C130.23 84.1796 133.093 86.6461 136.406 88.3538L138.873 80.4982C139.253 79.2896 139.552 77.6319 138.47 76.6892C137.115 75.4666 135.553 74.5017 134.22 73.2247Z" fill="#FBBEBE"/>
<path d="M161.074 46.2939C160.29 46.445 159.512 46.028 158.716 45.9857C158.091 45.9855 157.473 46.123 156.907 46.3886C155.113 47.1303 153.502 48.2527 152.183 49.6784C150.864 51.1041 149.869 52.7992 149.267 54.6471C149.001 55.4328 148.863 56.2566 148.861 57.0864C148.873 57.7611 149.013 58.4258 149.092 59.1006C149.528 62.7948 148.115 66.4527 146.44 69.7762C145.513 71.6112 144.468 73.547 144.687 75.5914C144.715 75.8654 144.759 76.1736 144.592 76.3971C144.391 76.663 143.957 76.6771 143.77 76.9571C143.583 77.2371 143.754 77.6601 143.605 77.9763C143.404 78.4235 142.749 78.3691 142.28 78.21C140.996 77.7747 139.807 77.0978 138.776 76.2159C137.105 77.1928 135.318 78.357 134.769 80.2142C134.64 80.688 134.551 81.1718 134.502 81.6604L133.639 88.8715C133.525 89.8263 133.468 90.9462 134.188 91.5827C135.429 92.6825 137.638 91.2584 138.965 92.2535C139.305 92.5073 139.526 92.8859 139.769 93.2304C141.219 95.2225 143.714 96.0987 146.054 96.8561C146.377 96.9787 146.715 97.0533 147.059 97.0776C147.402 97.068 147.74 97.0069 148.065 96.8964C149.038 96.6224 150.075 96.3042 150.698 95.5085C151.959 93.8971 153.404 92.5234 154.812 91.0368C155.453 90.3838 156.057 89.6952 156.621 88.9742C157.425 87.9026 158.041 86.7082 158.662 85.5238C159.961 83.0503 161.296 80.5969 162.667 78.1637C163.418 76.7984 164.247 75.4775 165.15 74.2076C166.024 72.9991 167.017 71.8912 167.854 70.6625C169.06 68.8739 169.927 66.8717 170.735 64.8675C171.062 64.0618 171.386 63.2299 171.491 62.3617C171.595 61.4936 171.455 60.561 170.928 59.862C169.181 57.5396 169.094 54.3067 167.488 51.8855C165.881 49.4644 163.732 47.4622 161.074 46.2939Z" fill="#E8E8F0"/>
<path d="M113.619 53.2593C113.572 53.2891 113.532 53.329 113.502 53.376C113.472 53.423 113.453 53.4759 113.446 53.5312C113.446 53.6319 113.528 53.7105 113.573 53.8011C113.695 54.0589 113.498 54.357 113.273 54.5343C113.048 54.7115 112.774 54.8485 112.652 55.1084C112.633 55.1428 112.625 55.182 112.628 55.2212C112.641 55.2742 112.672 55.3211 112.716 55.3541C112.848 55.5066 113.02 55.6195 113.213 55.6804C113.52 55.7449 113.816 55.5414 114.077 55.3742C114.361 55.1946 114.663 55.046 114.978 54.9311C115.075 54.9022 115.167 54.8565 115.249 54.7961C115.35 54.6958 115.412 54.5631 115.424 54.4215C115.493 53.9159 115.223 53.4305 114.916 53.0115C114.546 52.518 113.934 52.9873 113.619 53.2593Z" fill="#3F3D56"/>
<path d="M82.7738 112.952L61.9047 102.281C61.7524 102.203 61.5659 102.263 61.4882 102.416L56.1696 112.856C56.0919 113.008 56.1523 113.195 56.3047 113.273L77.1737 123.945C77.326 124.023 77.5125 123.962 77.5902 123.81L82.9088 113.37C82.9865 113.217 82.9261 113.03 82.7738 112.952Z" fill="#3F3D56"/>
<path d="M80.8524 113.221L62.8485 104.014L58.2804 112.981L76.2843 122.188L80.8524 113.221Z" fill="#E8E8F0"/>
<path d="M60.1684 108.298C60.2234 108.19 60.1358 108.035 59.9726 107.952C59.8094 107.868 59.6325 107.888 59.5775 107.996C59.5224 108.104 59.6101 108.259 59.7733 108.343C59.9365 108.426 60.1134 108.406 60.1684 108.298Z" fill="#E6E8EC"/>
<path d="M79.8568 118.392C79.9471 118.215 79.8023 117.96 79.5333 117.822C79.2643 117.685 78.973 117.717 78.8826 117.894C78.7923 118.072 78.9371 118.327 79.2061 118.464C79.4751 118.602 79.7664 118.57 79.8568 118.392Z" fill="#E6E8EC"/>
<g opacity="0.1">
<path opacity="0.1" d="M167.54 20.7731C167.122 22.5497 166.334 24.286 166.426 26.1089C164.756 26.5867 163.059 26.9628 161.344 27.2349C160.54 27.3618 159.611 27.4363 159.022 26.8663C158.773 26.5988 158.591 26.2756 158.491 25.9236C157.854 24.0363 158.067 21.881 157.104 20.1366C156.701 19.4254 156.126 18.8276 155.431 18.3987C154.736 17.9698 153.944 17.7237 153.129 17.6833C152.498 17.6611 151.78 17.8162 151.456 18.358C151.332 18.6238 151.236 18.902 151.171 19.1879C150.724 20.5355 148.897 21.2022 147.693 20.4509C147.089 20.0722 146.677 19.4437 146.132 18.9724C145.441 18.3782 144.554 18.072 143.778 17.5926C143.079 17.1616 142.743 16.7265 142.6 16.2773C142.423 17.2462 142.373 18.1365 143.778 19.0026C144.554 19.482 145.441 19.7882 146.132 20.3824C146.677 20.8497 147.081 21.4822 147.693 21.8608C148.899 22.6081 150.724 21.9454 151.171 20.5979C151.236 20.312 151.332 20.0338 151.456 19.768C151.78 19.2262 152.498 19.0711 153.129 19.0932C153.944 19.1337 154.736 19.3798 155.431 19.8087C156.126 20.2376 156.701 20.8354 157.104 21.5466C158.067 23.291 157.854 25.4462 158.491 27.3336C158.592 27.6885 158.777 28.0139 159.03 28.2823C159.619 28.8463 160.55 28.7778 161.352 28.6509C163.067 28.3788 164.764 28.0028 166.434 27.525C166.336 25.7021 167.13 23.9658 167.548 22.1892C167.87 20.7354 167.999 19.2454 167.932 17.7578C167.9 18.7733 167.769 19.7833 167.54 20.7731V20.7731Z" fill="black"/>
<path opacity="0.1" d="M142.721 14.2046C142.868 13.5421 142.797 12.8497 142.52 12.2306C142.266 11.6989 141.549 11.3484 141.066 11.6848C140.583 12.0212 140.652 12.7725 140.533 13.3768C140.304 14.5652 139.126 15.3749 137.92 15.5642C137.355 15.6549 136.725 15.6186 136.287 15.252C136.005 14.9812 135.797 14.6419 135.684 14.2671C135.375 13.4293 135.188 12.5516 135.127 11.6606C135.025 13.0239 135.215 14.3933 135.684 15.677C135.797 16.0519 136.005 16.3911 136.287 16.662C136.725 17.0286 137.355 17.0649 137.92 16.9742C139.112 16.7849 140.296 15.9671 140.533 14.7867C140.648 14.1825 140.569 13.4513 141.068 13.1048C141.567 12.7584 142.274 13.1189 142.522 13.6507C142.608 13.8276 142.674 14.0133 142.721 14.2046Z" fill="black"/>
</g>
</g>
<defs>
<clipPath id="clip0_1_44">
<rect width="230" height="144" fill="white"/>
</clipPath>
</defs>
</svg>
